<svg xmlns="http://www.w3.org/2000/svg" xmlns:xlink="http://www.w3.org/1999/xlink" width="50" zoomAndPan="magnify" viewBox="0 0 37.5 37.499999" height="50" preserveAspectRatio="xMidYMid meet" version="1.0"><defs><g/></defs><g fill="#2b2b2b" fill-opacity="1"><g transform="translate(3.153322, 16.108212)"><g><path d="M 1.472656 -0.113281 C 2.164062 0.0976562 3.023438 0.0390625 3.484375 -0.535156 C 3.984375 -1.148438 3.828125 -2.660156 4.382812 -3.121094 C 4.691406 -3.351562 7.371094 -3.140625 7.46875 -3.0625 C 7.984375 -2.625 8.078125 -1.398438 8.464844 -0.84375 C 9 -0.0585938 9.707031 -0.0195312 10.453125 -0.613281 C 11.199219 -1.226562 11.125 -1.855469 10.816406 -2.699219 L 8.578125 -9 C 8.042969 -10.53125 7.679688 -12.886719 5.667969 -12.847656 C 3.886719 -12.789062 3.007812 -11.71875 2.488281 -10.148438 C 1.875 -8.289062 1.300781 -6.414062 0.84375 -4.519531 C 0.496094 -3.101562 -0.496094 -0.6875 1.472656 -0.113281 Z M 5.265625 -5.839844 C 5.4375 -6.414062 5.628906 -6.988281 5.800781 -7.5625 C 5.953125 -7.046875 6.128906 -6.546875 6.300781 -6.03125 C 5.953125 -5.972656 5.609375 -5.898438 5.265625 -5.839844 Z M 5.265625 -5.839844 "/></g></g></g><g fill="#2b2b2b" fill-opacity="1"><g transform="translate(13.394492, 16.108212)"><g><path d="M 5.285156 6.128906 C 6.546875 6.070312 6.335938 2.335938 6.394531 1.492188 C 6.546875 -0.632812 6.664062 -2.738281 6.738281 -4.863281 C 6.816406 -5.742188 7.21875 -7.3125 6.566406 -8.078125 C 6.144531 -8.578125 5.4375 -8.328125 4.84375 -8.425781 C 4.15625 -8.519531 3.425781 -8.445312 2.777344 -8.195312 C -0.132812 -7.085938 -0.480469 -3.425781 1.648438 -1.398438 C 2.183594 -0.898438 2.832031 -0.496094 3.503906 -0.210938 C 3.617188 -0.152344 4.328125 0 4.402344 0.078125 C 4.539062 0.269531 4.367188 1.320312 4.367188 1.589844 C 4.367188 2.335938 3.945312 6.164062 5.285156 6.128906 Z M 4.59375 -3.484375 C 3.867188 -3.964844 3.234375 -4.632812 3.675781 -5.550781 C 4.039062 -6.335938 4.882812 -6.394531 4.769531 -5.378906 Z M 4.59375 -3.484375 "/></g></g></g><g fill="#2ea1da" fill-opacity="1"><g transform="translate(19.520559, 16.108212)"><g><path d="M 7.277344 1.933594 C 7.792969 1.109375 7.734375 0.0390625 7.753906 -0.917969 C 7.792969 -2.105469 7.925781 -3.292969 7.851562 -4.5 C 7.753906 -5.515625 6.988281 -7.332031 5.6875 -6.492188 C 4.710938 -5.859375 4.652344 -4.480469 3.886719 -3.695312 C 2.738281 -2.507812 2.796875 -4.730469 2.851562 -5.4375 C 2.929688 -6.320312 3.792969 -8.273438 2.949219 -8.941406 C 1.761719 -9.878906 0.746094 -7.945312 0.496094 -7.046875 C 0.210938 -5.878906 0.25 -4.59375 0.363281 -3.40625 C 0.613281 -1.054688 2.625 1.265625 4.84375 -0.898438 C 4.902344 0.113281 5.761719 4.328125 7.277344 1.933594 Z M 7.277344 1.933594 "/></g></g></g><g fill="#2b2b2b" fill-opacity="1"><g transform="translate(26.58417, 16.108212)"><g><path d="M 6.109375 -0.0195312 C 7.140625 0.191406 6.929688 -1.4375 6.910156 -2.011719 L 6.796875 -5.609375 C 6.757812 -6.71875 6.453125 -7.105469 5.859375 -7.964844 C 4.5 -9.917969 2.238281 -8.769531 1.1875 -7.121094 C 0.324219 -5.761719 -0.0585938 -3.695312 0.6875 -2.183594 C 1.683594 -0.191406 4.175781 -0.957031 5.265625 -2.449219 C 5.285156 -1.839844 5.246094 -0.210938 6.109375 -0.0195312 Z M 3.675781 -4.347656 C 3.101562 -4.367188 3.179688 -4.882812 3.3125 -5.285156 C 3.464844 -5.6875 3.90625 -6.394531 4.308594 -6.546875 C 4.921875 -6.796875 5.113281 -6.222656 4.863281 -5.667969 C 4.730469 -5.324219 4.136719 -4.328125 3.675781 -4.347656 Z M 3.675781 -4.347656 "/></g></g></g><g fill="#2b2b2b" fill-opacity="1"><g transform="translate(9.656691, 25.632569)"><g><path d="M 0.652344 -0.0390625 C 0.890625 0.0390625 1.226562 0.0234375 1.261719 -0.285156 C 1.300781 -0.632812 0.972656 -0.53125 0.746094 -0.628906 C 0.445312 -0.757812 0.574219 -1.042969 0.761719 -1.222656 C 0.984375 -1.292969 1.328125 -1.355469 1.320312 -1.65625 C 1.304688 -1.964844 0.953125 -1.898438 0.75 -1.828125 C 0.238281 -1.65625 -0.09375 -1.089844 0.0976562 -0.566406 C 0.191406 -0.3125 0.394531 -0.121094 0.652344 -0.0390625 Z M 0.652344 -0.0390625 "/></g></g></g><g fill="#2b2b2b" fill-opacity="1"><g transform="translate(11.267572, 25.632569)"><g><path d="M 0.953125 -0.046875 C 1.382812 -0.210938 1.425781 -0.835938 1.355469 -1.222656 C 1.277344 -1.652344 0.882812 -1.824219 0.480469 -1.683594 C -0.0351562 -1.5 -0.0078125 -0.929688 0.125 -0.496094 C 0.179688 -0.304688 0.242188 -0.136719 0.4375 -0.0507812 C 0.59375 0.015625 0.792969 0.015625 0.953125 -0.046875 Z M 0.601562 -0.433594 C 0.488281 -0.546875 0.5 -0.871094 0.542969 -1.015625 C 0.578125 -1.121094 0.757812 -1.265625 0.878906 -1.199219 C 1.042969 -1.105469 0.988281 -0.710938 0.953125 -0.566406 C 0.90625 -0.394531 0.765625 -0.265625 0.601562 -0.433594 Z M 0.601562 -0.433594 "/></g></g></g><g fill="#2b2b2b" fill-opacity="1"><g transform="translate(12.94438, 25.632569)"><g><path d="M 0.953125 -0.046875 C 1.382812 -0.210938 1.425781 -0.835938 1.355469 -1.222656 C 1.277344 -1.652344 0.882812 -1.824219 0.480469 -1.683594 C -0.0351562 -1.5 -0.0078125 -0.929688 0.125 -0.496094 C 0.179688 -0.304688 0.242188 -0.136719 0.4375 -0.0507812 C 0.59375 0.015625 0.792969 0.015625 0.953125 -0.046875 Z M 0.601562 -0.433594 C 0.488281 -0.546875 0.5 -0.871094 0.542969 -1.015625 C 0.578125 -1.121094 0.757812 -1.265625 0.878906 -1.199219 C 1.042969 -1.105469 0.988281 -0.710938 0.953125 -0.566406 C 0.90625 -0.394531 0.765625 -0.265625 0.601562 -0.433594 Z M 0.601562 -0.433594 "/></g></g></g><g fill="#2b2b2b" fill-opacity="1"><g transform="translate(14.621187, 25.632569)"><g><path d="M 1.109375 -0.046875 C 1.296875 -0.148438 1.300781 -0.4375 1.125 -0.554688 C 1 -0.640625 0.867188 -0.609375 0.726562 -0.636719 C 0.621094 -0.65625 0.640625 -0.609375 0.625 -0.726562 C 0.617188 -0.792969 0.632812 -0.867188 0.636719 -0.929688 C 0.644531 -1.183594 0.6875 -1.5 0.605469 -1.75 C 0.539062 -1.953125 0.328125 -2.027344 0.175781 -1.851562 C 0.0390625 -1.683594 0.046875 -1.394531 0.046875 -1.195312 C 0.046875 -0.957031 0.0351562 -0.699219 0.0585938 -0.460938 C 0.0820312 -0.199219 0.253906 -0.0898438 0.5 -0.046875 C 0.671875 -0.0195312 0.949219 0.0429688 1.109375 -0.046875 Z M 1.109375 -0.046875 "/></g></g></g><g fill="#2b2b2b" fill-opacity="1"><g transform="translate(16.166143, 25.632569)"><g><path d="M 0.476562 -0.00390625 C 0.652344 -0.015625 0.832031 -0.0117188 1.007812 -0.0195312 C 1.152344 -0.0273438 1.261719 -0.046875 1.320312 -0.191406 C 1.351562 -0.285156 1.371094 -0.457031 1.277344 -0.53125 C 1.171875 -0.609375 1.007812 -0.574219 0.886719 -0.578125 C 0.777344 -0.585938 0.496094 -0.671875 0.660156 -0.824219 C 0.757812 -0.917969 0.910156 -0.808594 1.023438 -0.839844 C 1.148438 -0.878906 1.179688 -1.019531 1.164062 -1.136719 C 1.15625 -1.238281 1.121094 -1.296875 1.023438 -1.332031 C 0.929688 -1.367188 0.730469 -1.304688 0.65625 -1.359375 C 0.554688 -1.429688 0.648438 -1.566406 0.71875 -1.578125 C 0.828125 -1.605469 0.945312 -1.53125 1.058594 -1.578125 C 1.160156 -1.617188 1.210938 -1.710938 1.199219 -1.820312 C 1.179688 -1.972656 1.050781 -1.996094 0.921875 -2.019531 C 0.726562 -2.046875 0.210938 -2.144531 0.125 -1.902344 C 0.0859375 -1.800781 0.105469 -1.65625 0.101562 -1.550781 C 0.09375 -1.359375 0.0859375 -1.167969 0.078125 -0.972656 C 0.0703125 -0.8125 0.0625 -0.648438 0.0546875 -0.484375 C 0.046875 -0.355469 0.0117188 -0.167969 0.113281 -0.0703125 C 0.210938 0.0234375 0.359375 -0.00390625 0.476562 -0.00390625 Z M 0.476562 -0.00390625 "/></g></g></g><g fill="#2b2b2b" fill-opacity="1"><g transform="translate(17.805687, 25.632569)"><g><path d="M 0.0820312 -0.242188 C 0.160156 0.246094 0.992188 -0.121094 1.199219 -0.335938 C 1.523438 -0.671875 1.703125 -1.285156 1.441406 -1.71875 C 1.3125 -1.941406 1.054688 -2.023438 0.8125 -2.039062 C 0.609375 -2.050781 0.269531 -2.039062 0.132812 -1.855469 C -0.00390625 -1.664062 0.0546875 -1.332031 0.0625 -1.113281 C 0.0742188 -0.828125 0.0390625 -0.523438 0.0820312 -0.242188 Z M 0.664062 -0.652344 C 0.519531 -0.683594 0.582031 -1.007812 0.582031 -1.113281 C 0.585938 -1.285156 0.535156 -1.480469 0.761719 -1.425781 C 0.933594 -1.382812 1.070312 -1.242188 1.027344 -1.058594 C 1.003906 -0.941406 0.828125 -0.617188 0.664062 -0.652344 Z M 0.664062 -0.652344 "/></g></g></g><g fill="#2b2b2b" fill-opacity="1"><g transform="translate(19.66594, 25.632569)"><g/></g></g><g fill="#2b2b2b" fill-opacity="1"><g transform="translate(20.631893, 25.632569)"><g><path d="M 0.8125 -0.0820312 C 0.96875 -0.230469 0.953125 -0.460938 0.929688 -0.753906 C 0.90625 -0.9375 0.910156 -0.984375 1.015625 -1.132812 C 1.082031 -1.230469 1.148438 -1.328125 1.199219 -1.4375 C 1.253906 -1.554688 1.355469 -1.800781 1.191406 -1.878906 C 0.929688 -2 0.78125 -1.546875 0.683594 -1.382812 C 0.597656 -1.566406 0.570312 -1.832031 0.371094 -1.929688 C 0.140625 -2.042969 0 -1.847656 0.0546875 -1.632812 C 0.113281 -1.398438 0.324219 -1.210938 0.351562 -0.984375 C 0.378906 -0.75 0.269531 -0.332031 0.402344 -0.125 C 0.511719 0.0390625 0.742188 0.0507812 0.8125 -0.0820312 Z M 0.8125 -0.0820312 "/></g></g></g><g fill="#2b2b2b" fill-opacity="1"><g transform="translate(22.162518, 25.632569)"><g><path d="M 0.953125 -0.046875 C 1.382812 -0.210938 1.425781 -0.835938 1.355469 -1.222656 C 1.277344 -1.652344 0.882812 -1.824219 0.480469 -1.683594 C -0.0351562 -1.5 -0.0078125 -0.929688 0.125 -0.496094 C 0.179688 -0.304688 0.242188 -0.136719 0.4375 -0.0507812 C 0.59375 0.015625 0.792969 0.015625 0.953125 -0.046875 Z M 0.601562 -0.433594 C 0.488281 -0.546875 0.5 -0.871094 0.542969 -1.015625 C 0.578125 -1.121094 0.757812 -1.265625 0.878906 -1.199219 C 1.042969 -1.105469 0.988281 -0.710938 0.953125 -0.566406 C 0.90625 -0.394531 0.765625 -0.265625 0.601562 -0.433594 Z M 0.601562 -0.433594 "/></g></g></g><g fill="#2b2b2b" fill-opacity="1"><g transform="translate(23.839325, 25.632569)"><g><path d="M 0.273438 -0.226562 C 0.761719 0.257812 1.691406 -0.0742188 1.480469 -0.820312 C 1.414062 -1.050781 0.953125 -1.222656 0.828125 -0.964844 C 0.789062 -0.886719 0.792969 -0.738281 0.855469 -0.671875 C 0.910156 -0.609375 1.058594 -0.636719 0.992188 -0.523438 C 0.9375 -0.4375 0.773438 -0.46875 0.703125 -0.5 C 0.566406 -0.570312 0.511719 -0.726562 0.515625 -0.871094 C 0.53125 -1.15625 0.75 -1.375 1.011719 -1.453125 C 1.210938 -1.511719 1.238281 -1.730469 1.078125 -1.890625 C 0.84375 -2.117188 0.433594 -1.726562 0.296875 -1.546875 C 0.0117188 -1.179688 -0.0820312 -0.582031 0.273438 -0.226562 Z M 0.273438 -0.226562 "/></g></g></g><g fill="#2b2b2b" fill-opacity="1"><g transform="translate(25.645118, 25.632569)"><g><path d="M 0.222656 -0.015625 C 0.324219 0.015625 0.453125 0.00390625 0.523438 -0.0820312 C 0.597656 -0.171875 0.574219 -0.398438 0.65625 -0.46875 C 0.703125 -0.5 1.105469 -0.46875 1.117188 -0.457031 C 1.195312 -0.394531 1.210938 -0.210938 1.265625 -0.125 C 1.347656 -0.0078125 1.453125 -0.00390625 1.566406 -0.0898438 C 1.675781 -0.183594 1.664062 -0.277344 1.621094 -0.402344 L 1.285156 -1.347656 C 1.203125 -1.578125 1.148438 -1.929688 0.847656 -1.921875 C 0.582031 -1.914062 0.449219 -1.753906 0.371094 -1.519531 C 0.28125 -1.242188 0.195312 -0.960938 0.125 -0.675781 C 0.0742188 -0.464844 -0.0742188 -0.101562 0.222656 -0.015625 Z M 0.789062 -0.875 C 0.8125 -0.960938 0.84375 -1.046875 0.867188 -1.132812 C 0.890625 -1.054688 0.917969 -0.980469 0.941406 -0.902344 C 0.890625 -0.894531 0.839844 -0.882812 0.789062 -0.875 Z M 0.789062 -0.875 "/></g></g></g></svg>